PathFileType	4	(X/Y/Z)	..\data\2014053\dynamic\2014053_C4_04.trc
DataRate	CameraRate	NumFrames	NumMarkers	Units	OrigDataRate	OrigDataStartFrame	OrigNumFrames
100.000000	100.000000	4	52	mm	100.000000	45	181
Frame#	Time	L_IAS			L_IPS			R_IPS			R_IAS			L_FTC			L_FLE			L_FME			L_FAX			L_TTC			L_FAL			L_TAM			L_FCC			L_FM1			L_FM2			L_FM5			R_FTC			R_FLE			R_FME			R_FAX			R_TTC			R_FAL			R_TAM			R_FCC			R_FM1			R_FM2			R_FM5			CV7			TV10			SXS			SJN			L_SIA			L_SRS			L_SAA			L_SAE			L_HLE			L_HME			L_UOA			L_RSP			L_UHE			L_HM2			L_HM5			R_SIA			R_SRS			R_SAA			R_SAE			R_HLE			R_HME			R_UOA			R_RSP			R_UHE			R_HM2			R_HM5			
		X1	Y1	Z1	X2	Y2	Z2	X3	Y3	Z3	X4	Y4	Z4	X5	Y5	Z5	X6	Y6	Z6	X7	Y7	Z7	X8	Y8	Z8	X9	Y9	Z9	X10	Y10	Z10	X11	Y11	Z11	X12	Y12	Z12	X13	Y13	Z13	X14	Y14	Z14	X15	Y15	Z15	X16	Y16	Z16	X17	Y17	Z17	X18	Y18	Z18	X19	Y19	Z19	X20	Y20	Z20	X21	Y21	Z21	X22	Y22	Z22	X23	Y23	Z23	X24	Y24	Z24	X25	Y25	Z25	X26	Y26	Z26	X27	Y27	Z27	X28	Y28	Z28	X29	Y29	Z29	X30	Y30	Z30	X31	Y31	Z31	X32	Y32	Z32	X33	Y33	Z33	X34	Y34	Z34	X35	Y35	Z35	X36	Y36	Z36	X37	Y37	Z37	X38	Y38	Z38	X39	Y39	Z39	X40	Y40	Z40	X41	Y41	Z41	X42	Y42	Z42	X43	Y43	Z43	X44	Y44	Z44	X45	Y45	Z45	X46	Y46	Z46	X47	Y47	Z47	X48	Y48	Z48	X49	Y49	Z49	X50	Y50	Z50	X51	Y51	Z51	X52	Y52	Z52	

46	0.45	356.6215515136719	947.1802978515627	-295.0976562500001	147.5785064697266	975.8372802734377	-233.1979064941407	146.8035278320313	969.8861083984377	-129.5111236572266	351.2956542968751	954.7424316406252	-69.50060272216798	285.5950927734376	877.2656250000002	-377.0441589355469	262.6995239257813	473.4664306640626	-305.6806335449219	239.1793365478516	478.6679687500001	-173.2593078613282	231.1390228271485	412.0987854003907	-308.5312805175782	285.8361511230469	400.310760498047	-237.924789428711	160.197265625	65.2014617919922	-257.3884582519532	172.4521179199219	76.03291320800783	-169.38720703125	105.8916778564453	17.90021514892578	-206.6373443603516	294.4002990722657	18.5003890991211	-150.5708923339844	313.2526245117188	34.49708938598634	-204.8324279785157	272.8001098632813	17.01316261291504	-268.8133239746094	284.4340820312501	876.7817993164065	12.72180080413819	433.6409606933595	510.9868469238282	-24.94664382934571	450.955047607422	499.3242492675782	-162.2053680419922	406.4848022460939	452.1580810546876	-29.90290260314942	484.6426086425782	427.8372192382814	-67.06697082519533	372.8650512695313	84.86644744873048	-61.77309417724611	421.5108947753907	93.06578826904298	-137.4031372070313	349.3919982910157	39.15266036987305	-134.8411254882813	536.4536132812501	43.18080520629884	-109.3130264282227	529.7208862304689	54.07577133178712	-57.32791137695314	482.801971435547	31.26765632629395	-17.22650909423828	204.4277954101563	1451.76220703125	-195.2137451171876	156.2975616455078	1222.497924804688	-200.3863372802735	364.7298889160157	1169.515258789063	-194.6542968750001	314.0015869140626	1379.318725585938	-194.3679504394532	145.7371063232422	1270.524047851563	-289.8618164062501	166.1697845458985	1392.704345703125	-288.2537841796876	233.6045379638672	1393.613037109375	-381.9820251464844	277.6874694824219	1399.510986328125	-381.1000671386719	268.6679077148438	1082.880493164063	-442.9160461425782	243.2439270019532	1065.746826171875	-365.0501098632813	237.9461517333985	1042.627685546875	-410.7318115234376	407.2481994628907	870.506042480469	-399.7431945800782	366.2651062011719	869.1431884765627	-460.0741271972657	454.862274169922	798.4112548828127	-409.1621704101564	380.1350097656251	790.1707153320315	-464.6641845703126	130.4078674316407	1265.570678710938	-107.7239761352539	157.4811401367188	1387.160400390625	-109.5900421142578	213.4079132080079	1387.663330078125	-21.11119461059571	260.4649963378907	1385.05126953125	-2.565389156341553	192.9754028320313	1077.690307617188	40.63658142089844	194.1648559570313	1065.63818359375	-41.29671096801759	170.3255462646485	1044.212524414063	-0.9784803390502932	304.6219482421876	846.7637939453127	59.58089447021486	237.9988098144532	847.688415527344	80.46711730957033	329.1932678222657	758.4003295898439	70.73377227783205	233.9259948730469	767.0780029296876	78.8407669067383	
47	0.46	365.7909545898438	945.8707275390627	-295.3247985839844	156.9979400634766	974.6717529296877	-231.8231658935547	157.1022644042969	968.5139770507815	-128.0983428955078	362.0490417480469	953.600036621094	-69.59008789062501	294.0332641601563	876.047546386719	-376.6758728027344	267.9414367675782	472.3887023925782	-305.2868041992188	243.8321838378907	478.1292114257814	-173.0696105957032	235.5615234375001	411.3641052246095	-308.1955261230469	289.9298095703126	398.9810791015626	-237.5001373291016	160.5496368408203	65.19213867187501	-257.1856994628907	172.6782684326172	75.93206024169923	-169.14111328125	105.9025344848633	18.10574722290039	-206.5035095214844	294.4425354003907	18.41591262817383	-150.5125579833985	313.4417114257813	34.33850097656251	-204.8010253906251	272.7595825195313	16.97517776489258	-268.8633117675782	295.9827270507813	875.8142089843752	13.12563419342041	443.7337951660157	509.2318420410157	-25.76996231079102	460.5446166992189	497.7661743164064	-163.5258026123047	418.4361572265626	449.4164123535157	-30.75491905212403	497.7275695800782	428.5095825195314	-68.06400299072267	405.9367675781251	80.63803863525392	-61.98248672485353	454.368377685547	90.9431838989258	-137.2989807128907	385.5118103027345	33.5256576538086	-135.3965148925782	572.0786743164064	47.1807975769043	-108.7833633422852	564.5303344726564	57.74280929565431	-56.89611816406251	518.4276123046876	32.81075668334962	-16.91374588012696	215.0827636718751	1450.579711914063	-195.1726989746094	166.2939758300782	1221.438720703125	-199.9344635009766	374.5413818359376	1167.84619140625	-194.7726135253907	324.4369201660157	1377.88330078125	-194.4531402587891	155.731674194336	1269.561889648438	-289.8434143066407	176.5970458984375	1391.7080078125	-288.3263549804688	244.189682006836	1392.321899414063	-382.1068420410157	288.2682800292969	1398.106079101563	-381.0824890136719	280.2159729003907	1081.597290039063	-443.3981933593751	254.2747344970704	1064.138549804688	-365.7385559082032	249.6271362304688	1040.913818359375	-411.5262756347657	421.5506286621095	871.3960571289065	-399.0189819335939	380.7638854980469	869.0058593750002	-459.3745422363282	470.6578369140626	800.2459716796877	-408.0879211425782	396.1439208984376	790.1619262695315	-463.5920410156251	140.809555053711	1264.47998046875	-107.6202545166016	168.1051635742188	1386.12744140625	-109.4866256713867	224.0901336669922	1386.480346679688	-21.04707717895508	271.0755310058594	1383.621704101563	-2.572296380996705	201.9316558837891	1076.802978515625	40.98175811767579	203.138168334961	1064.567016601563	-40.93584442138673	179.1712799072266	1043.294677734375	-0.574962615966797	312.8982238769532	845.7005004882815	60.3817596435547	246.2872924804688	846.7124023437502	81.2079315185547	337.0925292968751	757.1166381835939	71.76393890380861	242.0803375244141	766.1195678710939	79.72075653076173	
48	0.47	374.9460449218751	944.457702636719	-295.5313720703126	166.5273132324219	973.434753417969	-230.4339599609376	167.5486755371094	967.1292114257815	-126.6609268188477	372.9472351074219	952.2297363281252	-69.67788696289064	302.4772949218751	874.7044067382815	-376.2915649414063	273.5000000000001	471.2039794921876	-304.7916564941407	248.8779754638672	477.4855346679689	-172.7944641113282	240.2692565917969	410.5535888671876	-307.7610473632813	294.3049011230469	397.5403747558595	-237.0061035156251	160.9495239257813	65.19407653808595	-256.9633789062501	172.9639739990235	75.82952880859376	-168.8934631347657	105.9526977539063	18.37002563476563	-206.3660125732422	294.4622497558594	18.31895637512207	-150.4260559082032	313.6192932128907	34.1574935913086	-204.7492828369141	272.7073669433594	16.93452835083008	-268.8981018066407	307.5993957519532	874.578552246094	13.48108386993409	453.5022888183595	507.0455932617189	-26.49866104125977	469.6311950683595	495.7574157714845	-164.8192138671875	430.2744445800782	446.4326782226564	-31.46484756469727	510.421600341797	428.9124450683595	-69.20919036865236	438.6458435058595	77.34246063232423	-62.12769317626955	486.3559570312501	89.75052642822267	-137.317138671875	420.9217834472657	29.07372665405274	-135.8032531738282	606.5941162109376	51.92275238037111	-108.9706039428711	598.5160522460939	62.17287063598634	-57.1621780395508	553.4955444335939	35.26559448242188	-17.0867977142334	225.7462463378907	1449.24365234375	-195.0853118896485	176.3214721679688	1220.220825195313	-199.3672637939454	384.3836059570314	1166.056884765625	-194.8558349609376	334.8879394531251	1376.309448242188	-194.5044097900391	165.7279968261719	1268.431518554688	-289.7242431640626	187.0170440673828	1390.545288085938	-288.3380737304688	254.7701263427735	1390.844848632813	-382.1807556152344	298.8422546386719	1396.524536132813	-381.0205078125001	291.7359008789063	1080.139770507813	-443.7497558593751	265.3316345214844	1062.3671875	-366.2796936035157	261.2967529296876	1039.04931640625	-412.1725463867189	435.7051391601564	872.0780029296877	-398.2208251953126	395.0870361328126	868.6794433593752	-458.5715332031251	486.2038574218751	801.8450317382815	-406.9378662109376	411.8967285156251	789.9863281250002	-462.3919067382814	151.2527923583985	1263.24462890625	-107.4073486328125	178.7709350585938	1384.95556640625	-109.3057861328125	234.8147583007813	1385.190673828125	-20.9029769897461	281.8044128417969	1382.073608398438	-2.55716609954834	211.0277099609376	1075.784790039063	41.31511306762696	212.2819824218751	1063.389526367188	-40.5907325744629	188.170150756836	1042.26318359375	-0.1989170610904694	321.2546691894532	844.457702636719	61.13779449462892	254.6601867675782	845.5977783203127	81.89991760253908	345.0688476562501	755.6600341796876	72.75838470458986	250.2913818359376	765.0122680664064	80.53405761718751	
49	0.48	384.0979309082032	942.9417724609377	-295.7312316894532	176.16796875	972.125915527344	-229.0373992919922	178.1351013183594	965.7115478515627	-125.207389831543	383.9775695800782	950.6271972656252	-69.77430725097658	310.9321289062501	873.2504882812502	-375.9087524414063	279.3184204101563	469.9205017089845	-304.2208557128907	254.3673706054688	476.7190246582032	-172.4372100830078	245.2252044677735	409.6740722656251	-307.2404785156251	298.9484558105469	395.9942932128907	-236.4764099121094	161.3956146240235	65.21997070312501	-256.7157592773438	173.3177795410157	75.74021911621095	-168.6383514404297	106.045768737793	18.70902824401856	-206.2178955078126	294.4596862792969	18.21489715576172	-150.3136749267578	313.7852172851563	33.95928192138673	-204.6766052246094	272.6455078125001	16.89424133300782	-268.9103393554688	319.2813720703126	873.057556152344	13.78889846801758	463.0690002441407	504.5210876464845	-27.12045288085938	478.2660217285157	493.3602905273439	-166.0486297607422	442.0835876464845	443.2987670898439	-32.0062484741211	522.7860107421876	429.0847778320314	-70.49095916748048	470.7738342285157	74.97185516357423	-62.24064254760744	517.2697753906251	89.43563079833986	-137.5052642822266	455.350311279297	25.75006103515626	-136.0875396728516	639.7926635742189	57.29238510131837	-109.9206466674805	631.4739379882814	67.27394104003908	-58.16827774047853	587.7941284179689	38.57317733764649	-17.78793907165528	236.4125061035157	1447.7646484375	-194.9456481933594	186.3912353515625	1218.848754882813	-198.6940460205079	394.2706604003907	1164.1611328125	-194.9102478027344	345.3543090820313	1374.611694335938	-194.5204315185547	175.7311096191407	1267.138549804688	-289.4993896484376	197.4258270263672	1389.22412109375	-288.2810363769532	265.3346557617188	1389.195678710938	-382.1981506347657	309.3951721191407	1394.783813476563	-380.9138488769532	303.2273254394532	1078.519653320313	-443.9635314941407	276.4242553710938	1060.447875976563	-366.6631774902344	272.9556884765626	1037.048095703125	-412.6592407226564	449.6976013183595	872.5412597656252	-397.3455505371095	409.2273559570314	868.1657714843752	-457.6717834472657	501.4757385253907	803.1866455078127	-405.7107238769532	427.3729858398439	789.644226074219	-461.077606201172	161.7396850585938	1261.866577148438	-107.086410522461	189.4717102050782	1383.647216796875	-109.0467910766602	245.573959350586	1383.801391601563	-20.67196655273438	292.6548461914063	1380.417724609375	-2.519783258438111	220.2729797363282	1074.639770507813	41.64400482177735	221.6001129150391	1062.110107421875	-40.25246047973634	197.3298797607422	1041.123168945313	0.15750852227211	329.6972656250001	843.0278930664065	61.85103225708009	263.1207885742188	844.345153808594	82.54407501220705	353.1331176757813	754.0385742187501	73.70708465576173	258.5589294433594	763.7600097656251	81.27713775634767	
